<svg width="48" height="48" viewBox="0 0 48 48" fill="none" xmlns="http://www.w3.org/2000/svg">
<path d="M24 48C10.7472 48 0 37.2528 0 24C0 10.7472 10.7472 0 24 0C37.2528 0 48 10.7472 48 24C48 37.2528 37.2528 48 24 48Z" fill="url(#paint0_linear)"/>
<path d="M24 10.5697C28.3728 10.5697 28.8912 10.5841 30.6192 10.6657C32.2176 10.7377 33.0864 11.0065 33.6624 11.2321C34.4256 11.5297 34.9728 11.8849 35.544 12.4561C36.1152 13.0273 36.4704 13.5745 36.768 14.3377C36.9936 14.9137 37.2576 15.7825 37.3344 17.3809C37.4112 19.1089 37.4304 19.6273 37.4304 24.0001C37.4304 28.3729 37.416 28.8913 37.3344 30.6193C37.2624 32.2177 36.9936 33.0865 36.768 33.6625C36.4704 34.4257 36.1152 34.9729 35.544 35.5441C34.9728 36.1153 34.4256 36.4705 33.6624 36.7681C33.0864 36.9937 32.2176 37.2577 30.6192 37.3345C28.8912 37.4113 28.3728 37.4305 24 37.4305C19.6272 37.4305 19.1088 37.4161 17.3808 37.3345C15.7824 37.2625 14.9136 36.9937 14.3376 36.7681C13.5744 36.4705 13.0272 36.1153 12.456 35.5441C11.8848 34.9729 11.5296 34.4257 11.232 33.6625C11.0064 33.0865 10.7424 32.2177 10.6656 30.6193C10.5888 28.8913 10.5696 28.3729 10.5696 24.0001C10.5696 19.6273 10.584 19.1089 10.6656 17.3809C10.7376 15.7825 11.0064 14.9137 11.232 14.3377C11.5296 13.5745 11.8848 13.0273 12.456 12.4561C13.0272 11.8849 13.5744 11.5297 14.3376 11.2321C14.9136 11.0065 15.7824 10.7425 17.3808 10.6657C19.1088 10.5841 19.6272 10.5697 24 10.5697ZM24 7.61768C19.5504 7.61768 18.9936 7.63688 17.2464 7.71848C15.504 7.80008 14.3136 8.07368 13.2672 8.48168C12.192 8.89448 11.2752 9.45608 10.368 10.3681C9.45599 11.2801 8.89919 12.1921 8.47679 13.2721C8.07359 14.3137 7.79519 15.5041 7.71359 17.2513C7.63199 18.9985 7.61279 19.5553 7.61279 24.0049C7.61279 28.4545 7.63199 29.0113 7.71359 30.7585C7.79519 32.5009 8.06879 33.6913 8.47679 34.7377C8.89439 35.8081 9.45599 36.7249 10.368 37.6321C11.28 38.5441 12.192 39.1009 13.272 39.5233C14.3136 39.9265 15.504 40.2049 17.2512 40.2865C18.9984 40.3681 19.5552 40.3873 24.0048 40.3873C28.4544 40.3873 29.0112 40.3681 30.7584 40.2865C32.5008 40.2049 33.6912 39.9313 34.7376 39.5233C35.808 39.1057 36.7248 38.5441 37.632 37.6321C38.544 36.7201 39.1008 35.8081 39.5232 34.7281C39.9264 33.6865 40.2048 32.4961 40.2864 30.7489C40.368 29.0017 40.3872 28.4449 40.3872 23.9953C40.3872 19.5457 40.368 18.9889 40.2864 17.2417C40.2048 15.4993 39.9312 14.3089 39.5232 13.2625C39.1056 12.1921 38.544 11.2753 37.632 10.3681C36.72 9.45608 35.808 8.89928 34.728 8.47688C33.6864 8.07368 32.496 7.79528 30.7488 7.71368C29.0064 7.63688 28.4496 7.61768 24 7.61768Z" fill="white"/>
<path d="M24 15.5857C19.3536 15.5857 15.5856 19.3537 15.5856 24.0001C15.5856 28.6465 19.3536 32.4145 24 32.4145C28.6464 32.4145 32.4144 28.6465 32.4144 24.0001C32.4144 19.3537 28.6464 15.5857 24 15.5857ZM24 29.4625C20.9856 29.4625 18.5376 27.0193 18.5376 24.0001C18.5376 20.9809 20.9856 18.5377 24 18.5377C27.0144 18.5377 29.4624 20.9809 29.4624 24.0001C29.4624 27.0193 27.0144 29.4625 24 29.4625Z" fill="white"/>
<path d="M32.7456 17.2226C33.8325 17.2226 34.7136 16.3415 34.7136 15.2546C34.7136 14.1677 33.8325 13.2866 32.7456 13.2866C31.6587 13.2866 30.7776 14.1677 30.7776 15.2546C30.7776 16.3415 31.6587 17.2226 32.7456 17.2226Z" fill="white"/>
<defs>
<linearGradient id="paint0_linear" x1="7.02943" y1="40.9706" x2="40.9706" y2="7.02943" gradientUnits="userSpaceOnUse">
<stop stop-color="#FFD521"/>
<stop offset="0.0551048" stop-color="#FFD020"/>
<stop offset="0.1241" stop-color="#FEC01E"/>
<stop offset="0.2004" stop-color="#FCA71B"/>
<stop offset="0.2821" stop-color="#FA8316"/>
<stop offset="0.3681" stop-color="#F85510"/>
<stop offset="0.4563" stop-color="#F51E09"/>
<stop offset="0.5" stop-color="#F30005"/>
<stop offset="0.5035" stop-color="#F20007"/>
<stop offset="0.5966" stop-color="#E1003B"/>
<stop offset="0.6879" stop-color="#D30067"/>
<stop offset="0.7757" stop-color="#C70088"/>
<stop offset="0.8589" stop-color="#BF00A0"/>
<stop offset="0.9357" stop-color="#BB00AF"/>
<stop offset="1" stop-color="#B900B4"/>
</linearGradient>
</defs>
</svg>
