<svg width="126" height="126" viewBox="0 0 126 126" fill="none" xmlns="http://www.w3.org/2000/svg">
<path d="M94.5 53.1562V39.375C94.5 22.05 80.325 7.875 63 7.875C45.675 7.875 31.5 22.05 31.5 39.375V53.1562C24.0188 61.0312 19.6875 71.2687 19.6875 82.6875C19.6875 96.4688 25.9875 109.069 37.0125 117.337C37.8 117.731 38.5875 118.125 39.375 118.125H86.625C87.4125 118.125 88.2 117.731 88.9875 117.337C100.013 109.069 106.312 96.4688 106.312 82.6875C106.312 71.2687 101.981 60.6375 94.5 53.1562ZM39.375 46.4625V39.375C39.375 26.3813 50.0063 15.75 63 15.75C75.9938 15.75 86.625 26.3813 86.625 39.375V46.4625C79.9313 42.1313 71.6625 39.375 63 39.375C54.3375 39.375 46.0688 42.1313 39.375 46.4625ZM86.625 79.1438C86.2312 79.1438 85.8375 79.1438 85.4438 79.1438C83.8688 79.1438 82.2938 77.9625 81.5063 76.3875C80.325 72.0563 77.175 68.5125 73.6313 66.15C71.6625 64.9687 71.2687 62.6062 72.45 60.6375C73.6312 58.6687 75.9937 58.275 77.9625 59.4563C83.0812 63 87.0188 68.1187 88.9875 74.025C89.775 76.3875 88.5938 78.3563 86.625 79.1438Z" fill="black"/>
<path d="M34.1406 101V97.0859H25.7383L25.5039 95.5742L32.8047 84.0078H36.4023V95.1641H38.4414L38.1953 97.0859H36.4023V101H34.1406ZM34.1406 95.1641V85.9062L28.4102 95.1641H34.1406ZM48.25 101V97.0859H39.8477L39.6133 95.5742L46.9141 84.0078H50.5117V95.1641H52.5508L52.3047 97.0859H50.5117V101H48.25ZM48.25 95.1641V85.9062L42.5195 95.1641H48.25ZM62.3594 101V97.0859H53.957L53.7227 95.5742L61.0234 84.0078H64.6211V95.1641H66.6602L66.4141 97.0859H64.6211V101H62.3594ZM62.3594 95.1641V85.9062L56.6289 95.1641H62.3594ZM76.4688 101V97.0859H68.0664L67.832 95.5742L75.1328 84.0078H78.7305V95.1641H80.7695L80.5234 97.0859H78.7305V101H76.4688ZM76.4688 95.1641V85.9062L70.7383 95.1641H76.4688ZM90.5781 101V97.0859H82.1758L81.9414 95.5742L89.2422 84.0078H92.8398V95.1641H94.8789L94.6328 97.0859H92.8398V101H90.5781ZM90.5781 95.1641V85.9062L84.8477 95.1641H90.5781Z" fill="#154738"/>
</svg>
