<svg width="78" height="54" viewBox="0 0 78 54" fill="none" xmlns="http://www.w3.org/2000/svg">
<path d="M26.5556 28.2153C23.9295 28.2153 21.3624 27.4366 19.1789 25.9776C16.9954 24.5186 15.2935 22.4449 14.2885 20.0187C13.2836 17.5925 13.0206 14.9228 13.533 12.3472C14.0453 9.77152 15.3099 7.40564 17.1668 5.54871C19.0237 3.69178 21.3896 2.42719 23.9653 1.91486C26.5409 1.40254 29.2106 1.66548 31.6368 2.67045C34.063 3.67541 36.1367 5.37726 37.5957 7.56078C39.0547 9.7443 39.8334 12.3114 39.8334 14.9375C39.8334 18.459 38.4345 21.8363 35.9444 24.3263C33.4544 26.8164 30.0771 28.2153 26.5556 28.2153ZM26.5556 4.97918C24.5861 4.97918 22.6607 5.56323 21.0231 6.65746C19.3854 7.7517 18.109 9.30698 17.3553 11.1266C16.6016 12.9463 16.4044 14.9486 16.7886 16.8803C17.1729 18.812 18.1213 20.5864 19.514 21.9791C20.9067 23.3718 22.6811 24.3203 24.6128 24.7045C26.5446 25.0888 28.5469 24.8915 30.3665 24.1378C32.1862 23.3841 33.7414 22.1077 34.8357 20.4701C35.9299 18.8324 36.514 16.9071 36.514 14.9375C36.514 12.2964 35.4648 9.76346 33.5972 7.89591C31.7297 6.02836 29.1967 4.97918 26.5556 4.97918Z" fill="#101820"/>
<path d="M38.1737 51.4514H14.9375C12.7366 51.4514 10.6258 50.5771 9.06952 49.0208C7.51323 47.4645 6.63892 45.3537 6.63892 43.1528V36.5139C6.63897 36.2259 6.71397 35.9428 6.85657 35.6926C6.99916 35.4423 7.20442 35.2334 7.45218 35.0866L15.7508 30.1074C16.1252 29.9382 16.5491 29.9138 16.9404 30.0391C17.3317 30.1644 17.6627 30.4304 17.8692 30.7856C18.0757 31.1408 18.1431 31.56 18.0584 31.9621C17.9737 32.3641 17.7428 32.7204 17.4105 32.9621L9.95836 37.46V43.1528C9.95836 44.4734 10.483 45.7398 11.4167 46.6736C12.3505 47.6074 13.617 48.132 14.9375 48.132H38.1737C39.4942 48.132 40.7607 47.6074 41.6945 46.6736C42.6282 45.7398 43.1528 44.4734 43.1528 43.1528V37.46L35.6675 32.9621C35.4558 32.8665 35.2667 32.7275 35.1121 32.5541C34.9576 32.3808 34.8411 32.1769 34.7703 31.9557C34.6995 31.7346 34.6759 31.501 34.701 31.2701C34.7261 31.0393 34.7994 30.8162 34.9162 30.6155C35.0329 30.4147 35.1905 30.2407 35.3787 30.1046C35.5669 29.9685 35.7815 29.8735 36.0088 29.8256C36.236 29.7777 36.4708 29.7781 36.6979 29.8266C36.925 29.8751 37.1394 29.9708 37.3272 30.1074L45.6258 35.0866C45.8797 35.2293 46.0917 35.4363 46.2402 35.6868C46.3888 35.9374 46.4688 36.2226 46.4723 36.5139V43.1528C46.4723 45.3537 45.598 47.4645 44.0417 49.0208C42.4854 50.5771 40.3746 51.4514 38.1737 51.4514Z" fill="#101820"/>
<path d="M51.5821 35.5635C51.4347 35.8206 51.3008 36.0852 51.181 36.3562C51.1236 36.489 51.0951 36.6323 51.0973 36.7768C51.0995 36.9213 51.1324 37.0637 51.1939 37.1946C51.2553 37.3255 51.3438 37.442 51.4537 37.5363C51.5635 37.6306 51.6921 37.7007 51.8311 37.7419C52.0756 37.8159 52.3388 37.7978 52.5707 37.691C52.8027 37.5843 52.9873 37.3963 53.0894 37.1628C55.2349 32.3137 61.9476 31.175 65.5565 35.0948C66.6716 36.2641 67.3795 37.7603 67.5755 39.3619C67.6031 39.616 67.7233 39.8511 67.9132 40.0226C68.1032 40.1942 68.3497 40.2902 68.606 40.2926C68.751 40.2932 68.8946 40.2632 69.0273 40.2048C69.1599 40.1463 69.2788 40.0606 69.376 39.9533C69.4732 39.8459 69.5466 39.7194 69.5915 39.5818C69.6363 39.4443 69.6516 39.2989 69.6363 39.1551C69.4722 37.804 69.0241 36.5027 68.3211 35.3361C67.618 34.1696 66.676 33.1641 65.5565 32.3854V27.8838H60.0248C59.2913 27.8838 58.5878 27.5932 58.0691 27.0761C57.5504 26.559 57.259 25.8576 57.259 25.1262V20.018C57.2598 19.5947 57.372 19.179 57.5843 18.8125C57.7967 18.446 58.1017 18.1414 58.469 17.9291L60.2738 16.8881C60.9281 16.5119 61.6886 16.3613 62.4375 16.4598C63.1863 16.5582 63.8816 16.9003 64.4157 17.4328L71.6553 24.6506C72.2913 25.2825 72.782 26.0446 73.0936 26.8842L77.7194 39.3206C77.9272 39.8792 78.0212 40.4735 77.996 41.0687C77.9708 41.6639 77.8268 42.2482 77.5725 42.7873C77.3182 43.3264 76.9587 43.8096 76.515 44.2087C76.0713 44.6077 75.5522 44.9146 74.9882 45.1114C71.3719 46.366 64.7891 47.8758 60.0248 47.8758C57.6729 47.7177 55.3936 46.8005 53.0481 47.5727C52.1189 47.8167 51.1771 48.0099 50.2269 48.1516L50.6003 47.0279C50.6451 46.8951 50.6626 46.7547 50.6516 46.6151C50.6406 46.4755 50.6015 46.3395 50.5365 46.2154C50.4715 46.0912 50.382 45.9815 50.2734 45.8927C50.1647 45.8039 50.0392 45.7379 49.9044 45.6987C49.3631 45.5365 48.7963 45.8891 48.6172 46.4235L47.5785 49.5234H45.8465C45.5723 49.5234 45.3093 49.4148 45.1154 49.2215C44.9215 49.0282 44.8126 48.7661 44.8126 48.4927V35.8269C44.8134 35.6873 44.8424 35.5493 44.8979 35.4212C44.9535 35.2931 45.0344 35.1774 45.1358 35.0812C45.2372 34.985 45.357 34.9102 45.4881 34.8613C45.6193 34.8123 45.7589 34.7903 45.8988 34.7965C47.8146 34.8563 49.7192 35.1134 51.5821 35.5635ZM56.3048 41.6921C58.5593 42.3318 60.9154 42.5377 63.2471 42.2987C64.5909 42.1311 64.3905 40.1235 63.0327 40.2444C60.9657 40.4517 58.8781 40.2693 56.8788 39.7066C55.5583 39.3517 54.9972 41.2944 56.3048 41.6921Z" fill="black"/>
</svg>
