<svg width="47" height="47" viewBox="0 0 47 47" fill="none" xmlns="http://www.w3.org/2000/svg">
<g clip-path="url(#clip0)">
<path d="M46.9999 23.5C46.9999 10.5213 36.4786 -1.59453e-06 23.4999 -1.02722e-06C10.5212 -4.59901e-07 -6.26297e-05 10.5213 -6.20624e-05 23.5C-6.14951e-05 36.4787 10.5212 47 23.4999 47C36.4786 47 46.9999 36.4787 46.9999 23.5Z" fill="#4D76A1"/>
<path fill-rule="evenodd" clip-rule="evenodd" d="M22.6124 33.8068H24.4568C24.4568 33.8068 25.014 33.7456 25.2984 33.439C25.5602 33.1575 25.5518 32.6288 25.5518 32.6288C25.5518 32.6288 25.5158 30.1539 26.6645 29.7894C27.7968 29.4304 29.2508 32.1814 30.792 33.2392C31.9574 34.0397 32.843 33.8642 32.843 33.8642L36.9638 33.8068C36.9638 33.8068 39.1195 33.674 38.0974 31.9791C38.0136 31.8404 37.5021 30.7253 35.0335 28.4338C32.4496 26.0356 32.7956 26.4235 35.9081 22.275C37.8037 19.7486 38.5615 18.2062 38.3248 17.5455C38.099 16.9163 36.7049 17.0826 36.7049 17.0826L32.0651 17.1116C32.0651 17.1116 31.7211 17.0646 31.466 17.2171C31.2168 17.3667 31.0563 17.7152 31.0563 17.7152C31.0563 17.7152 30.322 19.6703 29.3426 21.3329C27.2765 24.8413 26.4504 25.0264 26.1128 24.8086C25.3273 24.3009 25.5234 22.7689 25.5234 21.6806C25.5234 18.2807 26.039 16.8631 24.5192 16.4962C24.0149 16.3743 23.6437 16.2938 22.3539 16.2809C20.6984 16.2637 19.2971 16.2859 18.5037 16.6746C17.9759 16.9331 17.5687 17.5091 17.8167 17.5422C18.1233 17.5832 18.8179 17.7294 19.1861 18.2309C19.6616 18.8777 19.6448 20.3305 19.6448 20.3305C19.6448 20.3305 19.9179 24.3327 19.0068 24.83C18.3814 25.171 17.5234 24.4747 15.6815 21.2919C14.7377 19.6615 14.0251 17.8593 14.0251 17.8593C14.0251 17.8593 13.8877 17.5225 13.6427 17.3424C13.3452 17.1241 12.9297 17.0546 12.9297 17.0546L8.52066 17.0835C8.52066 17.0835 7.85878 17.1019 7.61581 17.3897C7.39965 17.6457 7.59863 18.1752 7.59863 18.1752C7.59863 18.1752 11.0505 26.2509 14.9589 30.3206C18.5427 34.0518 22.6124 33.8068 22.6124 33.8068Z" fill="white"/>
</g>
<defs>
<clipPath id="clip0">
<rect width="47" height="47" fill="white"/>
</clipPath>
</defs>
</svg>
